# xmcd CD database file
#
# Track frame offsets:
#	150
#	13750
#	23330
#	40822
#	51892
#	65135
#	78627
#	93937
#	107665
#	120122
#	134482
#	169702
#	187867
#	207075
#	225255
#	242560
#	263795
#	276702
#
# Disc length: 3928 seconds
#
# Revision: 0
# Processed by: cddbd v1.5.1PL0 Copyright (c) Steve Scherf et al.
# Submitted via: CDex 1.51
#
DISCID=e90f5612
DTITLE=Eliane Elias - The Best of Eliane Elias Sings
DYEAR=2005
DGENRE=Jazz
TTITLE0=Samba Do Aviao
TTITLE1=So Danco Samba
TTITLE2=Garota De Ipanema
TTITLE3=Brigas Nunca Mais
TTITLE4=How Insensitive
TTITLE5=Don't Ever Go Away
TTITLE6=Desafinado
TTITLE7=Samba De Uma Nota So
TTITLE8=Anos Dourados
TTITLE9=Iluminados
TTITLE10=Milton Nascimento Medley
TTITLE11=A Felicidade
TTITLE12=Esquecendo Voce
TTITLE13=Caminhos Cruzados
TTITLE14=Chega De Saudade
TTITLE15=Amor Em Paz
TTITLE16=Por Toda A Minha Vida
TTITLE17=The Continental
EXTD=YEAR: 2005
EXTT0=
EXTT1=
EXTT2=
EXTT3=
EXTT4=
EXTT5=
EXTT6=
EXTT7=
EXTT8=
EXTT9=
EXTT10=
EXTT11=
EXTT12=
EXTT13=
EXTT14=
EXTT15=
EXTT16=
EXTT17=
PLAYORDER=
